<?xml version="1.0" standalone="no"?>
<!DOCTYPE svg PUBLIC "-//W3C//DTD SVG 20010904//EN"
 "http://www.w3.org/TR/2001/REC-SVG-20010904/DTD/svg10.dtd">
<svg version="1.0" xmlns="http://www.w3.org/2000/svg"
 width="300.000000pt" height="225.000000pt" viewBox="0 0 300.000000 225.000000"
 preserveAspectRatio="xMidYMid meet">
<metadata>
Created by potrace 1.10, written by Peter Selinger 2001-2011
</metadata>
<g transform="translate(0.000000,225.000000) scale(0.100000,-0.100000)"
fill="#000000" stroke="none">
<path d="M2015 2048 c-50 -26 -151 -106 -278 -221 -54 -49 -99 -88 -101 -86
-1 2 -17 38 -34 79 -71 164 -69 161 -152 191 -64 24 -90 28 -175 27 -90 0 -95
-1 -50 -9 28 -5 58 -14 67 -19 10 -6 47 -10 83 -10 97 0 131 -18 160 -84 27
-62 43 -121 26 -96 -8 12 -10 10 -8 -8 1 -14 6 -21 14 -18 7 3 13 -2 13 -10 0
-8 3 -13 8 -11 4 3 15 -5 24 -18 16 -21 16 -23 -16 -54 l-33 -32 5 33 c4 31 3
32 -11 13 -8 -10 -12 -26 -9 -35 3 -8 2 -12 -2 -8 -7 5 -81 -67 -135 -132 -21
-24 -21 -25 -36 -6 -16 21 -21 10 -6 -13 6 -10 2 -24 -12 -43 -11 -15 -22 -26
-24 -24 -2 1 -12 63 -22 137 -34 236 -70 388 -71 296 0 -28 3 -36 13 -31 7 5
7 1 -2 -10 -12 -14 -12 -19 -1 -26 7 -4 10 -15 7 -23 -3 -8 -3 -18 1 -22 4 -4
7 -10 8 -13 1 -7 12 -54 21 -87 5 -17 4 -18 -10 -7 -13 11 -15 10 -10 -7 3
-12 9 -21 12 -21 4 0 8 -6 9 -12 4 -39 10 -77 17 -107 6 -27 4 -32 -6 -27 -8
4 -6 1 4 -7 18 -15 18 -16 0 -26 -17 -10 -17 -10 0 -11 9 0 17 -4 17 -10 0
-13 -31 -28 -52 -25 -9 2 -15 -2 -12 -9 15 -39 -64 -69 -101 -38 -11 9 -17 13
-13 8 8 -10 -9 -36 -23 -36 -15 0 -39 103 -47 205 l-8 99 50 67 c30 39 61 96
75 136 13 37 32 83 43 102 10 18 18 35 16 36 -2 1 -30 14 -62 29 -54 24 -61
25 -82 11 -26 -17 -44 -40 -85 -110 -16 -27 -49 -79 -74 -114 -25 -36 -44 -70
-41 -76 2 -7 -3 -25 -13 -41 -9 -16 -28 -55 -41 -87 -22 -57 -23 -60 -7 -111
10 -32 30 -65 52 -86 19 -19 35 -43 35 -55 0 -18 -5 -20 -34 -17 -19 2 -49 -3
-67 -11 -19 -8 -65 -25 -103 -37 -58 -19 -74 -21 -106 -11 -53 16 -126 14
-166 -5 -47 -23 -112 -99 -120 -141 -14 -73 36 -160 109 -193 44 -20 34 -35
-20 -32 -30 2 -50 -13 -20 -16 6 0 26 -3 42 -6 22 -3 40 3 65 22 19 15 48 34
65 42 40 20 89 87 115 157 36 96 54 106 208 119 l83 7 -7 -41 c-6 -38 21 -151
33 -139 2 3 -3 30 -13 61 -22 71 -13 95 44 112 31 9 42 9 42 0 0 -7 26 -11 77
-11 l78 0 0 -28 c1 -16 -3 -31 -8 -34 -4 -2 -4 -10 2 -17 10 -12 9 -43 -4
-121 -10 -63 -43 -123 -94 -172 -34 -34 -51 -41 -51 -23 0 6 -4 10 -10 10 -5
0 -7 -7 -4 -15 8 -19 0 -19 -20 1 -15 14 -16 12 -16 -20 0 -40 -14 -51 -95
-72 -59 -16 -111 -18 -120 -4 -3 6 -2 10 4 10 5 0 43 33 83 73 40 40 88 82
106 92 17 11 32 23 32 28 0 11 -12 3 -82 -50 -70 -53 -158 -138 -158 -152 0
-6 12 -25 28 -43 39 -48 71 -94 81 -120 18 -47 72 -108 108 -124 55 -24 194
-25 217 -1 27 26 39 21 97 -39 30 -30 69 -64 87 -75 37 -23 39 -38 15 -81 -18
-29 -19 -30 -73 -23 -98 12 -105 12 -117 3 -8 -6 -25 -6 -48 2 -19 6 -41 10
-48 7 -20 -7 93 -38 169 -45 111 -12 144 8 158 93 l7 40 162 82 c173 87 214
119 227 178 10 42 2 145 -11 145 -5 0 -9 -7 -9 -15 0 -21 -6 -19 -41 13 -30
26 -75 100 -66 108 2 2 22 -12 43 -32 100 -94 240 -120 314 -58 25 21 30 33
29 67 l-1 42 -9 -33 c-32 -109 -226 -89 -357 37 -46 45 -71 84 -40 65 7 -4 8
-3 4 5 -4 6 -12 9 -17 6 -9 -6 -10 -5 -14 32 -5 53 -95 134 -145 132 l-25 -1
25 -8 c18 -5 10 -7 -32 -8 -38 0 -61 4 -69 14 -6 8 -8 14 -3 14 4 0 -11 20
-35 44 -38 39 -42 48 -36 75 8 35 13 36 73 16 45 -16 127 -11 116 7 -3 5 -13
7 -21 4 -8 -3 -12 -2 -9 3 7 11 -24 24 -33 15 -3 -4 0 -9 7 -11 6 -3 12 -10
12 -16 0 -8 -4 -7 -12 1 -7 7 -29 12 -50 12 -21 0 -38 3 -38 8 1 4 29 41 63
83 34 42 99 122 144 178 46 56 138 168 206 249 133 159 237 292 237 304 0 12
-11 9 -55 -14z m14 -25 c-21 -27 -188 -217 -373 -423 -104 -116 -170 -198
-177 -220 -6 -19 -21 -45 -32 -57 -11 -13 -17 -23 -12 -23 4 0 0 -9 -10 -20
-10 -11 -22 -17 -26 -14 -5 3 -14 -6 -20 -19 -8 -17 -17 -23 -30 -20 -10 3
-19 0 -19 -6 0 -6 7 -11 15 -11 15 0 20 -40 15 -114 -1 -18 2 -26 9 -21 6 3
14 -1 17 -10 4 -9 24 -25 46 -36 33 -17 45 -19 71 -9 25 8 34 8 42 -3 5 -7 17
-16 26 -19 8 -3 26 -28 40 -54 13 -27 25 -51 27 -53 1 -2 5 -2 8 2 3 3 -8 32
-26 64 -30 56 -30 57 -5 28 24 -27 50 -77 116 -221 11 -22 32 -53 49 -69 16
-16 30 -35 30 -42 0 -8 5 -11 12 -7 7 5 9 2 5 -9 -3 -8 -1 -32 5 -53 9 -33 7
-40 -9 -51 -10 -8 -28 -11 -40 -8 -13 3 -23 1 -23 -5 0 -6 6 -8 13 -4 7 5 6 1
-3 -10 -7 -10 -36 -30 -62 -45 -26 -15 -45 -30 -42 -34 3 -3 -4 -3 -17 0 -17
5 -20 3 -14 -7 6 -10 4 -12 -9 -7 -10 4 -15 3 -11 -3 3 -5 -5 -15 -19 -22 -14
-6 -26 -15 -26 -20 0 -6 -6 -8 -12 -6 -7 3 -19 -2 -26 -9 -11 -10 -17 -11 -28
-2 -13 11 -19 3 -16 -23 6 -38 -108 25 -182 101 -36 36 -38 42 -24 53 9 7 24
37 32 67 19 64 18 61 8 61 -4 0 -13 -20 -20 -44 -42 -158 -255 -198 -351 -66
-17 23 -33 51 -37 63 -4 12 -13 27 -20 35 -17 17 -18 51 -1 56 84 23 127 39
127 47 0 5 -4 9 -10 9 -5 0 -10 -5 -10 -11 0 -6 -7 -9 -15 -5 -8 3 -15 1 -15
-5 0 -5 -12 -7 -28 -3 -21 4 -24 3 -12 -6 12 -8 3 -10 -35 -5 -27 3 -51 8 -53
9 -1 2 25 6 58 10 62 7 160 51 229 103 54 41 118 158 136 250 12 63 17 153 9
153 -5 0 -10 43 -11 95 -1 54 3 95 8 95 15 0 274 251 271 262 -1 5 2 7 7 4 5
-4 12 -2 15 3 13 21 129 115 124 100 -4 -11 1 -20 18 -28 19 -8 24 -8 24 3 0
8 6 17 13 20 8 4 7 5 -3 5 -29 -2 -40 1 -40 12 0 8 4 8 14 0 11 -10 16 -8 24
5 6 11 16 15 27 10 15 -5 16 -4 5 9 -7 9 -19 14 -27 11 -18 -7 -16 -2 7 19 16
15 20 15 15 3 -4 -10 1 -17 15 -21 15 -4 20 -2 16 8 -7 20 28 47 50 38 17 -6
17 -5 5 10 -11 15 -10 18 13 27 14 5 26 14 26 20 0 5 7 10 16 10 8 0 12 5 9
10 -3 6 -2 10 3 10 6 0 34 22 63 50 57 52 70 62 48 33z m-875 -30 c4 -5 12 -9
17 -9 5 -1 12 -2 17 -3 4 0 13 -10 20 -21 12 -19 10 -20 -70 -20 l-83 1 25 19
c14 11 30 24 35 29 12 12 29 14 39 4z m29 -76 c6 -15 -28 -103 -40 -100 -4 1
-8 -12 -9 -28 -1 -31 -36 -73 -50 -61 -4 4 -5 0 -1 -10 3 -9 -2 -23 -13 -33
-11 -10 -18 -21 -17 -25 1 -4 -9 -17 -23 -29 -14 -13 -20 -20 -13 -17 15 8 22
-15 28 -94 3 -35 8 -66 10 -70 2 -4 8 -26 14 -49 7 -33 6 -40 -3 -32 -8 7 -16
7 -22 1 -5 -5 -28 -12 -51 -16 -37 -6 -42 -4 -53 17 -7 13 -22 34 -33 47 -11
12 -16 22 -11 22 5 0 3 4 -4 9 -7 4 -19 25 -27 47 -13 39 -10 68 6 58 5 -3 9
0 9 6 0 6 4 9 9 5 6 -3 10 3 10 12 0 41 33 129 58 157 l28 31 -29 -25 -28 -25
7 25 c4 13 14 30 21 38 7 7 21 28 30 47 9 19 21 35 26 35 5 0 7 -4 4 -8 -3 -5
1 -9 9 -9 8 0 17 13 20 29 4 15 13 35 22 43 18 19 109 21 116 2z m38 -660 c-6
-6 -78 -11 -178 -11 -101 -1 -150 -4 -123 -8 29 -4 15 -5 -40 -3 -59 2 -77 1
-60 -6 20 -7 17 -7 -13 -3 -27 4 -51 -1 -81 -16 -39 -19 -47 -28 -74 -95 -16
-41 -28 -75 -25 -75 2 0 17 28 33 63 15 34 39 71 51 82 l24 20 -17 -20 c-10
-12 -25 -41 -33 -65 -9 -25 -27 -61 -40 -81 -26 -40 -83 -103 -71 -79 6 12 5
12 -6 -1 -7 -9 -19 -14 -25 -12 -7 3 -13 0 -13 -6 0 -6 -16 -11 -35 -11 -19 0
-35 4 -35 8 0 5 -15 16 -34 24 -40 19 -76 86 -76 140 0 46 49 113 104 141 47
24 114 25 187 2 11 -4 54 5 97 19 87 28 218 51 370 65 57 5 107 13 110 16 4 4
8 -12 10 -35 2 -24 -1 -47 -7 -53z"/>
<path d="M1640 1712 c0 -13 23 -32 38 -32 7 0 12 5 10 12 -5 13 -48 31 -48 20z"/>
<path d="M1600 1662 c0 -14 39 -46 47 -39 3 4 -2 16 -12 27 -19 21 -35 26 -35
12z"/>
<path d="M1530 1582 c-23 -28 -22 -40 4 -38 34 4 45 14 39 36 -7 25 -24 26
-43 2z"/>
<path d="M1362 1424 c-30 -21 -28 -58 4 -83 33 -26 49 -26 74 -1 55 55 -14
129 -78 84z m82 -16 c14 -23 -2 -50 -35 -58 -39 -10 -65 40 -37 68 17 17 58
11 72 -10z"/>
<path d="M1373 1404 c-8 -22 21 -49 44 -39 16 6 16 8 -5 16 -13 5 -20 14 -17
20 4 6 14 8 22 5 8 -3 11 -1 8 4 -10 16 -45 12 -52 -6z"/>
<path d="M1290 917 c-30 -61 -56 -115 -57 -119 -1 -5 1 -4 3 1 9 16 74 -117
74 -149 0 -18 5 -30 13 -30 16 0 45 -33 64 -74 23 -49 40 -78 45 -74 11 7 36
-24 31 -38 -3 -8 1 -14 8 -14 9 -1 7 -6 -5 -15 -22 -16 -16 -31 9 -22 8 4 15
18 15 32 0 15 4 34 9 44 8 14 5 17 -17 19 -33 3 -30 0 -87 107 -112 211 -125
237 -125 251 0 9 11 34 25 58 23 40 58 127 53 131 -2 1 -28 -47 -58 -108z"/>
<path d="M1551 946 c-1 -10 -10 -33 -21 -51 -26 -43 -40 -117 -26 -137 9 -12
11 -3 11 36 0 34 8 67 24 97 13 26 21 53 18 60 -4 9 -6 8 -6 -5z"/>
<path d="M1224 881 c3 -5 -4 -19 -17 -33 -12 -13 -29 -33 -37 -43 -14 -17 -14
-18 7 -7 19 11 44 40 67 80 4 7 1 12 -9 12 -9 0 -14 -4 -11 -9z"/>
<path d="M1160 765 c-24 -13 -23 -13 16 -8 38 5 43 2 74 -33 27 -32 30 -34 16
-9 -21 35 -53 65 -70 65 -6 -1 -22 -7 -36 -15z"/>
<path d="M1139 722 c-13 -10 -44 -26 -69 -36 -85 -33 -126 -98 -96 -153 16
-30 17 -29 20 35 3 57 37 92 103 104 113 21 109 22 131 -6 21 -28 20 -48 -8
-109 -12 -25 -15 -26 -31 -11 -9 8 -23 29 -29 45 -7 16 -20 29 -29 29 -9 0
-12 -3 -6 -8 12 -8 45 -70 45 -83 0 -5 -6 -9 -14 -9 -7 0 -19 -7 -26 -15 -18
-22 -73 -19 -95 5 -25 27 -36 25 -22 -4 7 -13 15 -22 19 -20 5 3 8 1 8 -5 0
-6 7 -7 17 -4 11 5 14 3 8 -6 -8 -14 21 -11 98 12 42 12 93 63 103 103 9 36
-11 96 -42 128 -31 31 -53 33 -85 8z"/>
<path d="M1629 548 c24 -44 35 -54 60 -56 17 -2 31 1 31 7 0 6 -12 8 -27 5
-25 -5 -31 0 -56 45 -16 28 -31 51 -33 51 -3 0 8 -24 25 -52z"/>
<path d="M477 1236 c-21 -8 -47 -22 -59 -33 -63 -57 -64 -159 -2 -214 20 -18
116 -31 106 -15 -3 5 2 7 11 3 10 -4 26 2 40 16 13 12 16 16 7 10 -33 -26 -31
-12 4 29 65 76 71 149 16 189 -36 25 -79 30 -123 15z m8 -26 c-21 -11 -41 -18
-43 -16 -7 7 9 27 17 22 4 -3 13 -1 21 5 8 5 22 9 30 9 8 0 -3 -9 -25 -20z
m113 -26 c27 -30 27 -47 3 -99 -24 -54 -73 -95 -117 -96 -19 -1 -39 -2 -46 -3
-21 -2 -58 65 -58 103 0 38 40 116 47 93 3 -7 0 -18 -6 -25 -20 -24 -24 -91
-7 -130 8 -20 20 -37 27 -37 8 0 6 6 -4 18 -28 31 -31 75 -8 126 16 37 29 51
63 66 49 22 74 19 106 -16z"/>
<path d="M473 1155 c-7 -20 -5 -22 37 -28 19 -3 41 -6 49 -8 31 -9 21 22 -13
36 -45 19 -65 19 -73 0z"/>
<path d="M2340 1947 c-8 -8 -64 -40 -125 -72 -60 -32 -162 -86 -226 -121 -64
-35 -133 -71 -154 -79 -36 -16 -37 -17 -19 -36 9 -10 20 -17 23 -14 3 4 -1 10
-8 14 -10 7 -8 11 10 17 13 4 26 8 29 9 25 5 62 22 96 45 23 15 58 33 78 40
20 6 36 16 36 21 0 6 5 7 10 4 6 -4 9 -1 8 5 -2 6 40 36 92 66 l95 55 -77 -78
c-121 -122 -105 -116 27 9 69 66 139 108 154 93 7 -7 6 -30 -4 -70 -17 -73
-24 -146 -30 -290 -5 -138 4 -103 43 158 31 204 29 229 -18 235 -14 1 -32 -3
-40 -11z"/>
<path d="M1160 1735 c0 -19 -15 -50 -41 -85 -23 -30 -32 -46 -21 -36 12 10 36
41 53 67 24 38 28 52 20 66 -9 15 -10 14 -11 -12z"/>
<path d="M2013 1586 c-61 -81 -98 -122 -112 -123 -11 -1 -26 -7 -33 -12 -25
-22 -89 -61 -98 -61 -6 0 -10 3 -11 8 -3 29 -11 57 -20 68 -6 7 -8 18 -5 23 4
5 2 13 -4 16 -6 4 -10 14 -9 23 3 32 -1 42 -16 42 -17 0 -12 -41 11 -99 8 -18
20 -57 28 -87 12 -45 12 -54 0 -58 -14 -5 -39 34 -55 84 -5 17 -8 19 -8 7 -1
-10 8 -35 19 -57 11 -22 20 -44 20 -49 0 -6 -18 -23 -40 -37 -22 -15 -38 -29
-36 -31 12 -13 52 16 128 91 121 121 213 162 306 137 114 -31 168 -160 102
-244 -43 -54 -189 -97 -275 -80 l-40 8 55 6 55 6 -51 1 c-28 1 -74 6 -102 12
-57 10 -198 -2 -215 -19 -12 -12 -3 -21 80 -71 40 -24 74 -35 145 -46 51 -7
105 -19 119 -25 24 -9 35 -5 111 45 168 110 272 233 279 326 8 113 -105 280
-209 309 -26 8 -32 3 -119 -113z m147 67 c35 -24 100 -96 100 -109 0 -6 -12
-17 -27 -23 -38 -15 -133 -32 -152 -27 -9 2 -28 7 -43 10 -36 8 -35 28 4 79
74 96 78 98 118 70z m138 -213 c3 -78 -14 -132 -45 -144 -8 -3 -11 -2 -8 3 3
5 1 13 -5 16 -6 4 -8 15 -5 24 8 28 -49 121 -74 121 -6 0 -11 6 -11 14 0 8 22
20 58 29 86 23 87 23 90 -63z m-498 -280 c-7 -4 12 -11 44 -14 31 -4 56 -11
56 -16 0 -4 7 -7 16 -6 32 2 27 -24 -5 -30 -17 -4 -31 -10 -31 -14 0 -3 -14
-4 -31 -2 -25 4 -30 2 -25 -9 4 -8 -2 -3 -13 11 -11 14 -21 31 -21 38 0 6 -8
12 -17 13 -11 0 -13 3 -5 6 27 11 -3 23 -61 25 l-62 1 50 6 c60 7 122 2 105
-9z m330 -8 c0 -11 -34 -40 -93 -80 -50 -33 -84 -40 -118 -22 -16 9 -17 13 -7
24 7 6 21 15 31 19 10 4 15 11 12 17 -4 6 15 10 52 10 36 0 53 4 45 9 -10 6
-7 10 12 13 17 3 23 1 19 -6 -3 -6 3 -3 13 7 20 18 34 22 34 9z"/>
<path d="M2030 1431 c-8 -5 -31 -11 -51 -15 -20 -4 -56 -20 -79 -37 -23 -17
-39 -25 -35 -18 5 8 4 10 -3 5 -7 -4 -12 -14 -12 -22 0 -8 -4 -13 -9 -9 -16 9
-51 -46 -51 -81 0 -42 20 -49 145 -49 100 0 148 18 195 71 36 42 34 118 -3
119 -7 1 -11 6 -10 13 2 7 -4 9 -14 5 -9 -4 -14 -2 -10 3 4 6 -7 9 -26 7 -26
-3 -28 -1 -12 6 13 7 15 10 5 10 -8 0 -22 -3 -30 -8z m45 -41 c4 -6 10 -8 15
-5 11 7 40 -34 40 -58 0 -13 -5 -17 -15 -13 -10 4 -20 -3 -27 -19 -6 -14 -17
-25 -25 -25 -7 0 -13 -4 -13 -10 0 -5 -6 -10 -14 -10 -8 0 -16 -5 -18 -12 -5
-14 -133 -24 -173 -14 -18 5 -25 13 -25 31 0 14 4 25 8 25 4 0 29 20 55 46 26
25 59 52 74 59 32 17 109 20 118 5z"/>
<path d="M1464 1155 c-11 -27 4 -47 33 -43 18 2 29 10 32 23 3 19 3 19 -17 2
-23 -21 -41 -5 -22 18 10 12 9 15 -4 15 -9 0 -19 -7 -22 -15z"/>
<path d="M1103 1130 c0 -19 4 -39 7 -45 4 -5 12 -29 19 -52 6 -24 16 -43 21
-43 5 0 -2 31 -15 69 -13 38 -26 77 -28 88 -3 10 -5 2 -4 -17z"/>
<path d="M1854 993 c-49 -3 -66 -9 -84 -28 -27 -28 -22 -42 8 -26 12 6 29 11
40 11 33 0 43 -51 18 -85 -14 -19 -15 -18 -46 15 -29 31 -30 32 -12 5 11 -16
34 -43 51 -59 l31 -30 0 61 c0 59 1 61 40 87 38 25 42 26 69 11 16 -8 45 -33
65 -57 39 -45 48 -96 21 -118 -9 -7 -13 -15 -10 -18 3 -3 14 3 25 13 39 35 22
112 -37 167 -27 26 -94 60 -110 56 -4 -1 -36 -3 -69 -5z"/>
</g>
</svg>
